<svg width="92" height="87" viewBox="0 0 92 87" fill="none" xmlns="http://www.w3.org/2000/svg">
<path d="M85.9537 33.7632L81.4124 21.7686H61.8415H52.0322L61.8415 33.7632H85.9537Z" fill="#4D93E5"/>
<path d="M39.9478 21.7686H30.1385H10.5677L6.02637 33.7632H30.1385L39.9478 21.7686Z" fill="#4D93E5"/>
<path d="M61.8413 33.7628L52.0321 21.7682L45.9899 14.3799L39.9478 21.7682L30.1386 33.7628H6.02637V75.9663H85.9535V33.7628H61.8413Z" fill="#CCD7EB"/>
<path d="M89.7685 75.9663H2.21191V83.9629H89.7685V75.9663Z" fill="#4D93E5"/>
<path d="M19.6489 59.3071H12.7461V67.7478H19.6489V59.3071Z" fill="#4D93E5"/>
<path d="M19.6489 41.9814H12.7461V50.4222H19.6489V41.9814Z" fill="#4D93E5"/>
<path d="M33.4545 59.3071H26.5518V67.7478H33.4545V59.3071Z" fill="#4D93E5"/>
<path d="M33.4545 41.9814H26.5518V50.4222H33.4545V41.9814Z" fill="#4D93E5"/>
<path d="M65.7885 59.3071H58.8857V67.7478H65.7885V59.3071Z" fill="#4D93E5"/>
<path d="M65.7885 41.9814H58.8857V50.4222H65.7885V41.9814Z" fill="#4D93E5"/>
<path d="M79.5952 59.3071H72.6924V67.7478H79.5952V59.3071Z" fill="#4D93E5"/>
<path d="M79.5952 41.9814H72.6924V50.4222H79.5952V41.9814Z" fill="#4D93E5"/>
<path d="M50.1676 75.9666H41.8115V65.5268C41.8115 62.7052 43.682 60.418 45.9896 60.418C48.2971 60.418 50.1676 62.7052 50.1676 65.5268V75.9666Z" fill="#4D93E5"/>
<path d="M45.9896 43.092C49.0996 43.092 51.6208 40.0091 51.6208 36.2062C51.6208 32.4032 49.0996 29.3203 45.9896 29.3203C42.8796 29.3203 40.3584 32.4032 40.3584 36.2062C40.3584 40.0091 42.8796 43.092 45.9896 43.092Z" fill="#4D93E5"/>
<path d="M55.2525 2.22119H45.8066V9.3291H55.2525V2.22119Z" fill="#4D93E5"/>
<path d="M43.9911 13.6819L39.1948 19.5469H10.5671C9.85936 19.5469 9.21594 20.0495 8.91876 20.835L4.37745 32.8296C4.26954 33.1144 4.21705 33.4189 4.21269 33.7233C4.21178 33.7364 4.20923 33.7495 4.20923 33.7628V73.745H2.21106C1.20797 73.745 0.394531 74.7395 0.394531 75.9663V83.9627C0.394531 85.1895 1.20797 86.184 2.21106 86.184H89.7676C90.7707 86.184 91.5841 85.1895 91.5841 83.9627V75.9663C91.5841 74.7395 90.7707 73.745 89.7676 73.745H87.7694V33.7628C87.7694 33.7488 87.7669 33.735 87.7661 33.721C87.7614 33.4174 87.7089 33.1137 87.6014 32.8296L83.0601 20.835C82.7627 20.0495 82.1193 19.5469 81.4116 19.5469H52.7839L47.6242 13.2377V11.5504H55.2536C56.2567 11.5504 57.0701 10.556 57.0701 9.32919V2.22124C57.0701 0.994447 56.2567 0 55.2536 0H45.8077C44.8046 0 43.9911 0.994447 43.9911 2.22124V13.6819ZM48.3508 73.745H43.6278V65.5265C43.6278 63.9343 44.6872 62.6389 45.9893 62.6389C47.2914 62.6389 48.3508 63.9343 48.3508 65.5265V73.745ZM80.2508 23.9893L83.11 31.5416H62.5931L56.4169 23.9893H80.2508ZM53.4371 7.10796H47.6242V4.44247H53.4371V7.10796ZM11.7278 23.9893H35.5617L29.3856 31.5416H8.86844L11.7278 23.9893ZM7.84229 35.984H27.9645H30.1381C30.6199 35.984 31.0818 35.7499 31.4226 35.3334L45.9893 17.5211L60.556 35.3334C60.8968 35.7499 61.3588 35.984 61.8405 35.984H63.3266H84.1364V73.745H51.9839V65.5265C51.9839 61.4847 49.2947 58.1964 45.9893 58.1964C42.684 58.1964 39.9948 61.4847 39.9948 65.5265V73.745H7.84229V35.984ZM87.9511 81.7415H4.02758V78.1875H87.9511V81.7415Z" fill="black"/>
<path d="M19.65 57.0854H12.7472C11.7441 57.0854 10.9307 58.0799 10.9307 59.3067V67.7475C10.9307 68.9743 11.7441 69.9688 12.7472 69.9688H19.65C20.653 69.9688 21.4665 68.9743 21.4665 67.7475V59.3067C21.4665 58.0799 20.653 57.0854 19.65 57.0854ZM17.8334 65.5262H14.5637V61.528H17.8334V65.5262Z" fill="black"/>
<path d="M19.65 39.7598H12.7472C11.7441 39.7598 10.9307 40.7542 10.9307 41.981V50.4216C10.9307 51.6484 11.7441 52.6428 12.7472 52.6428H19.65C20.653 52.6428 21.4665 51.6484 21.4665 50.4216V41.981C21.4665 40.7542 20.653 39.7598 19.65 39.7598ZM17.8334 48.2004H14.5637V44.2022H17.8334V48.2004Z" fill="black"/>
<path d="M33.4556 57.0854H26.5528C25.5498 57.0854 24.7363 58.0799 24.7363 59.3067V67.7475C24.7363 68.9743 25.5498 69.9688 26.5528 69.9688H33.4556C34.4587 69.9688 35.2721 68.9743 35.2721 67.7475V59.3067C35.2721 58.0799 34.4587 57.0854 33.4556 57.0854ZM31.6391 65.5262H28.3694V61.528H31.6391V65.5262Z" fill="black"/>
<path d="M33.4556 39.7598H26.5528C25.5498 39.7598 24.7363 40.7542 24.7363 41.981V50.4216C24.7363 51.6484 25.5498 52.6428 26.5528 52.6428H33.4556C34.4587 52.6428 35.2721 51.6484 35.2721 50.4216V41.981C35.2721 40.7542 34.4587 39.7598 33.4556 39.7598ZM31.6391 48.2004H28.3694V44.2022H31.6391V48.2004Z" fill="black"/>
<path d="M58.8868 69.9688H65.7897C66.7928 69.9688 67.6062 68.9743 67.6062 67.7475V59.3067C67.6062 58.0799 66.7928 57.0854 65.7897 57.0854H58.8868C57.8838 57.0854 57.0703 58.0799 57.0703 59.3067V67.7475C57.0703 68.9743 57.8838 69.9688 58.8868 69.9688ZM60.7034 61.528H63.9731V65.5262H60.7034V61.528Z" fill="black"/>
<path d="M58.8868 52.6428H65.7897C66.7928 52.6428 67.6062 51.6484 67.6062 50.4216V41.981C67.6062 40.7542 66.7928 39.7598 65.7897 39.7598H58.8868C57.8838 39.7598 57.0703 40.7542 57.0703 41.981V50.4216C57.0703 51.6484 57.8838 52.6428 58.8868 52.6428ZM60.7034 44.2022H63.9731V48.2004H60.7034V44.2022Z" fill="black"/>
<path d="M72.6925 69.9688H79.5953C80.5984 69.9688 81.4118 68.9743 81.4118 67.7475V59.3067C81.4118 58.0799 80.5984 57.0854 79.5953 57.0854H72.6925C71.6894 57.0854 70.876 58.0799 70.876 59.3067V67.7475C70.876 68.9743 71.6894 69.9688 72.6925 69.9688ZM74.509 61.528H77.7788V65.5262H74.509V61.528Z" fill="black"/>
<path d="M72.6925 52.6428H79.5953C80.5984 52.6428 81.4118 51.6484 81.4118 50.4216V41.981C81.4118 40.7542 80.5984 39.7598 79.5953 39.7598H72.6925C71.6894 39.7598 70.876 40.7542 70.876 41.981V50.4216C70.876 51.6484 71.6894 52.6428 72.6925 52.6428ZM74.509 44.2022H77.7788V48.2004H74.509V44.2022Z" fill="black"/>
<path d="M45.9898 45.3132C50.0964 45.3132 53.4375 41.2277 53.4375 36.2062C53.4375 31.1846 50.0964 27.0991 45.9898 27.0991C41.8831 27.0991 38.542 31.1846 38.542 36.2062C38.542 41.2277 41.8831 45.3132 45.9898 45.3132ZM45.9898 31.5416C48.0931 31.5416 49.8045 33.634 49.8045 36.2062C49.8045 38.7784 48.0931 40.8708 45.9898 40.8708C43.8864 40.8708 42.175 38.7784 42.175 36.2062C42.175 33.634 43.8864 31.5416 45.9898 31.5416Z" fill="black"/>
<path d="M49.2583 50.8662H42.7189C41.7158 50.8662 40.9023 51.8607 40.9023 53.0875C40.9023 54.3143 41.7158 55.3087 42.7189 55.3087H49.2583C50.2614 55.3087 51.0749 54.3143 51.0749 53.0875C51.0749 51.8607 50.2614 50.8662 49.2583 50.8662Z" fill="black"/>
<path d="M23.6466 25.9883H23.465C22.4619 25.9883 21.6484 26.9827 21.6484 28.2095C21.6484 29.4363 22.4619 30.4308 23.465 30.4308H23.6466C24.6497 30.4308 25.4631 29.4363 25.4631 28.2095C25.4631 26.9827 24.6497 25.9883 23.6466 25.9883Z" fill="black"/>
<path d="M18.1967 25.9883H14.0187C13.0156 25.9883 12.2021 26.9827 12.2021 28.2095C12.2021 29.4363 13.0156 30.4308 14.0187 30.4308H18.1967C19.1997 30.4308 20.0132 29.4363 20.0132 28.2095C20.0132 26.9827 19.1997 25.9883 18.1967 25.9883Z" fill="black"/>
</svg>
